<svg width="27" height="26" viewBox="0 0 27 26" fill="none" xmlns="http://www.w3.org/2000/svg">
<path d="M5.90457 6.56745C6.27496 2.86357 9.39169 0.0429688 13.114 0.0429688C16.8364 0.0429688 19.9531 2.86357 20.3235 6.56745L20.6994 10.3261C20.7836 11.1684 20.8257 11.5896 20.9104 11.9987C21.0617 12.7301 21.3147 13.4366 21.662 14.0978C21.8563 14.4677 22.091 14.8199 22.5606 15.5242L24.1551 17.916C25.0676 19.2848 25.5239 19.9691 25.2412 20.4973C24.9586 21.0254 24.1361 21.0254 22.491 21.0254H3.73703C2.09201 21.0254 1.2695 21.0254 0.986843 20.4973C0.704189 19.9691 1.16044 19.2848 2.07293 17.916L3.66749 15.5242C4.13704 14.8199 4.37181 14.4677 4.56611 14.0978C4.91339 13.4366 5.16637 12.7301 5.3177 11.9987C5.40236 11.5896 5.44447 11.1684 5.5287 10.3261L5.90457 6.56745Z" fill="#7B7B7B"/>
<path d="M10.5811 24.474C10.7305 24.6134 11.0598 24.7366 11.5178 24.8245C11.9759 24.9123 12.5371 24.96 13.1145 24.96C13.6919 24.96 14.2531 24.9123 14.7112 24.8245C15.1692 24.7366 15.4985 24.6134 15.6479 24.474" stroke="#7B7B7B" stroke-width="2" stroke-linecap="round"/>
</svg>
