<svg width="15" height="16" viewBox="0 0 15 16" fill="none" xmlns="http://www.w3.org/2000/svg">
<path opacity="0.3" fill-rule="evenodd" clip-rule="evenodd" d="M7.5 0.542969C11.6394 0.542969 15 3.90359 15 8.04297C15 12.1823 11.6394 15.543 7.5 15.543C3.36062 15.543 0 12.1823 0 8.04297C0 3.90359 3.36062 0.542969 7.5 0.542969ZM10.4169 12.418C10.6181 12.418 10.7812 12.2548 10.7812 12.0536V11.6886C10.9744 11.6886 11.16 11.6117 11.2969 11.4755C11.4338 11.3386 11.5106 11.153 11.5106 10.9598V8.04297C11.7119 8.04297 11.875 7.87984 11.875 7.67859V6.58484C11.875 6.38359 11.7119 6.21984 11.5106 6.21984V4.76172C11.5106 4.15797 11.0206 3.66797 10.4169 3.66797H4.58313C3.97938 3.66797 3.48938 4.15797 3.48938 4.76172V6.21984C3.28813 6.21984 3.125 6.38359 3.125 6.58484V7.67859C3.125 7.87984 3.28813 8.04297 3.48938 8.04297V10.9598C3.48938 11.153 3.56625 11.3386 3.70312 11.4755C3.84 11.6117 4.02563 11.6886 4.21875 11.6886V12.0536C4.21875 12.2548 4.38188 12.418 4.58313 12.418H5.3125C5.51375 12.418 5.67688 12.2548 5.67688 12.0536V11.6886H9.32312V12.0536C9.32312 12.2548 9.48625 12.418 9.6875 12.418H10.4169ZM4.76562 9.86609C5.0675 9.86609 5.3125 10.1111 5.3125 10.413C5.3125 10.7148 5.0675 10.9598 4.76562 10.9598C4.46375 10.9598 4.21875 10.7148 4.21875 10.413C4.21875 10.1111 4.46375 9.86609 4.76562 9.86609ZM10.2344 9.86609C10.5363 9.86609 10.7812 10.1111 10.7812 10.413C10.7812 10.7148 10.5363 10.9598 10.2344 10.9598C9.9325 10.9598 9.6875 10.7148 9.6875 10.413C9.6875 10.1111 9.9325 9.86609 10.2344 9.86609ZM8.41125 10.2305C8.51188 10.2305 8.59375 10.3123 8.59375 10.413C8.59375 10.5136 8.51188 10.5948 8.41125 10.5948H6.58875C6.48812 10.5948 6.40625 10.5136 6.40625 10.413C6.40625 10.3123 6.48812 10.2305 6.58875 10.2305H8.41125ZM10.7812 5.67297C10.7812 5.57234 10.6994 5.49109 10.5988 5.49109H4.40125C4.30062 5.49109 4.21875 5.57234 4.21875 5.67297V8.77234C4.21875 8.77234 5.34812 9.13672 7.5 9.13672C9.65188 9.13672 10.7812 8.77234 10.7812 8.77234V5.67297ZM8.95813 4.39734V4.76172H6.04187V4.39734H8.95813Z" fill="black"/>
</svg>
