<svg width="38" height="40" viewBox="0 0 38 40" fill="none" xmlns="http://www.w3.org/2000/svg">
<path d="M10.5852 22.63C10.0072 22.63 9.43693 22.5231 8.89147 22.3141L9.52216 20.524C9.86462 20.6552 10.221 20.7216 10.5852 20.7216C10.9881 20.7216 11.3817 20.6406 11.7536 20.4818L12.4463 22.2477C11.8543 22.502 11.2283 22.63 10.5852 22.63ZM24.0203 21.3615L21.4495 19.8306L22.3529 18.1717L24.9252 19.7026L24.0203 21.3615ZM14.0176 21.3291L13.0801 19.6913L15.6199 18.102L16.5574 19.7399L14.0176 21.3291ZM20.0889 19.0481C19.7124 18.8845 19.3141 18.8002 18.905 18.8002C18.5486 18.8002 18.1968 18.865 17.8606 18.993L17.2392 17.198C17.7754 16.9955 18.3363 16.8934 18.905 16.8918C19.5558 16.8918 20.1912 17.0247 20.7909 17.2871L20.0889 19.0481ZM6.55467 18.784C5.72563 18.784 5.05311 19.4855 5.05311 20.3522C5.05311 21.219 5.72563 21.9204 6.55467 21.9204C7.38371 21.9204 8.05624 21.2173 8.05624 20.3522C8.05469 19.4855 7.38371 18.784 6.55467 18.784ZM27.5921 7.38543L18.9995 0.905273L10.407 7.38543L0.404297 0.905273V33.3061L10.407 39.7862L18.9995 33.3061L27.5921 39.7862L37.5948 33.3061V0.905273L27.5921 7.38543ZM34.4956 31.503L28.2972 35.519V28.4459H26.7476V35.1545L20.5491 30.4807V23.5858H17.4499V30.4791L11.2515 35.1529V26.8259H9.70192V35.5174L3.5035 31.5013V6.72446L9.70192 10.7405V15.4856H11.2515V10.7438L17.4499 6.06834V12.2456H20.5491V6.06834L26.7476 10.7438V13.8656H28.2972V10.7405L34.4956 6.72446V31.503ZM32.4377 23.6117L30.4294 21.5478L32.4021 19.4531L31.3049 18.3158L29.3338 20.4138L27.3287 18.3531L26.2393 19.4904L28.2476 21.5575L26.2749 23.6571L27.3643 24.796L29.3431 22.6932L31.3499 24.7587L32.4377 23.6117Z" fill="#111111"/>
</svg>
