<svg width="34" height="34" viewBox="0 0 34 34" fill="none" xmlns="http://www.w3.org/2000/svg">
<path d="M34 16.5379L32.0719 18.6399L17 4.45993L1.92808 18.6184L0 16.5164L17 0.542969L34 16.5379ZM28.3333 19.0474L25.5 33.543H8.5L5.66667 19.0474L17 8.36684L28.3333 19.0474ZM18.4167 27.8038C18.4167 27.0118 17.782 26.3691 17 26.3691C16.218 26.3691 15.5833 27.0118 15.5833 27.8038C15.5833 28.5958 16.218 29.2386 17 29.2386C17.782 29.2386 18.4167 28.5958 18.4167 27.8038ZM19.8333 20.6299C19.8333 19.0445 18.564 17.7604 17 17.7604C15.436 17.7604 14.1667 19.0445 14.1667 20.6299C14.1667 22.2154 15.436 23.4995 17 23.4995C18.564 23.4995 19.8333 22.2154 19.8333 20.6299Z" fill="#A3FE35"/>
</svg>
