<svg width="15" height="16" viewBox="0 0 15 16" fill="none" xmlns="http://www.w3.org/2000/svg">
<g opacity="0.3" clip-path="url(#clip0_1104_3664)">
<path fill-rule="evenodd" clip-rule="evenodd" d="M4.38 14.8642C1.79625 13.6792 0 11.0692 0 8.04297C0 3.90359 3.36063 0.542969 7.5 0.542969C11.6394 0.542969 15 3.90359 15 8.04297C15 10.8173 13.4906 13.2417 11.2487 14.5392C11.25 11.1655 11.2513 6.53359 11.2475 5.98609C11.2456 5.72859 11.06 5.54297 10.8269 5.54297C10.0163 5.54297 8.8175 8.77422 8.4 12.418C9.07438 12.4161 9.685 12.418 9.685 12.418V15.2192C8.99312 15.4298 8.26 15.543 7.5 15.543C6.9675 15.543 6.44813 15.4873 5.9475 15.3817V11.5717C5.9475 11.2061 6.1725 11.0936 6.66688 10.7023C7.03813 10.4086 7.30188 9.94484 7.25125 9.47547C7.10688 8.14984 6.75563 5.54297 6.75563 5.54297H6.46938V8.66797H5.9475L5.84375 5.54297H5.55062L5.425 8.66797H4.9025L4.8125 5.54297H4.49625L4.38 8.66797H3.8575V5.54297H3.545C3.545 5.54297 3.22688 8.16672 3.09625 9.48797C3.05 9.95109 3.3 10.4061 3.66313 10.6973C4.155 11.0911 4.38 11.2092 4.38 11.5692V14.8642Z" fill="#030303"/>
</g>
<defs>
<clipPath id="clip0_1104_3664">
<rect width="15" height="15" fill="white" transform="translate(0 0.542969)"/>
</clipPath>
</defs>
</svg>
