<svg width="33" height="24" viewBox="0 0 33 24" fill="none" xmlns="http://www.w3.org/2000/svg">
<path fill-rule="evenodd" clip-rule="evenodd" d="M6.56115 0.59729L24.1425 21.8574L22.1145 23.5973L15.3865 15.4796H12.1465L10.1385 13.4462L8.14648 15.4796L6.17315 13.4462L4.14648 15.4796L0.146484 11.3775L3.51982 7.362H8.67448L4.51848 2.33717L6.56115 0.59729ZM14.7692 7.362H17.2185C18.6025 4.93617 21.1878 3.30317 24.1465 3.30317C28.5612 3.30317 32.1465 6.94123 32.1465 11.4208C32.1465 15.6731 28.9185 19.1651 24.8158 19.5101L14.7692 7.362ZM27.4798 9.39141C28.5838 9.39141 29.4798 10.3006 29.4798 11.4208C29.4798 12.5411 28.5838 13.4502 27.4798 13.4502C26.3758 13.4502 25.4798 12.5411 25.4798 11.4208C25.4798 10.3006 26.3758 9.39141 27.4798 9.39141Z" fill="white"/>
</svg>
