<svg width="19" height="19" viewBox="0 0 19 19" fill="none" xmlns="http://www.w3.org/2000/svg">
<path d="M9.5 0C7.00783 0 4.75 2.20486 4.75 4.92445C4.75 7.64318 6.80992 10.8896 9.5 15.5455C12.1901 10.8896 14.25 7.64318 14.25 4.92445C14.25 2.20486 11.993 0 9.5 0ZM9.5 6.90909C8.62521 6.90909 7.91667 6.13614 7.91667 5.18182C7.91667 4.2275 8.62521 3.45455 9.5 3.45455C10.3748 3.45455 11.0833 4.2275 11.0833 5.18182C11.0833 6.13614 10.3748 6.90909 9.5 6.90909ZM19 19H0L3.16667 12.0909H5.64854C5.95333 12.6445 6.28029 13.2214 6.62388 13.8182H4.14517L2.56183 17.2727H16.4374L14.854 13.8182H12.3753C12.7197 13.2214 13.0467 12.6445 13.3507 12.0909H15.8333L19 19Z" fill="white"/>
</svg>
