<svg width="18" height="12" viewBox="0 0 18 12" fill="none" xmlns="http://www.w3.org/2000/svg">
<path d="M3.33333 3V12H17.5V3H3.33333ZM10.4167 10.5C8.85196 10.5 7.58333 9.15675 7.58333 7.5C7.58333 5.84325 8.85196 4.5 10.4167 4.5C11.9814 4.5 13.25 5.84325 13.25 7.5C13.25 9.15675 11.9814 10.5 10.4167 10.5ZM10.5583 8.98425V9.3H10.275V9C9.98175 8.99475 9.67788 8.92125 9.425 8.78175L9.55462 8.289C9.82521 8.4 10.1857 8.51775 10.4684 8.451C10.7942 8.373 10.8615 8.01825 10.501 7.8465C10.2367 7.7175 9.42996 7.60575 9.42996 6.8745C9.42996 6.46575 9.72392 6.099 10.275 6.01875V5.7H10.5583V6.00525C10.763 6.0105 10.994 6.04875 11.2511 6.13125L11.1477 6.62475C10.9302 6.5445 10.6894 6.47025 10.4556 6.486C10.0342 6.51225 9.99662 6.89925 10.2913 7.06125C10.7765 7.302 11.409 7.482 11.409 8.12475C11.409 8.64 11.028 8.91525 10.5583 8.98425ZM15.375 1.5H1.91667V9.75H0.5V0H15.375V1.5Z" fill="#A3FE35"/>
</svg>
