<svg width="31" height="31" viewBox="0 0 31 31" fill="none" xmlns="http://www.w3.org/2000/svg">
<path d="M11.8976 23.6246C5.33796 23.6246 0 18.3262 0 11.8123C0 5.29842 5.33796 0 11.8976 0C18.4572 0 23.7951 5.29971 23.7951 11.8123C23.7951 18.3249 18.4585 23.6246 11.8976 23.6246ZM11.8976 4.03387C7.57697 4.03387 4.06299 7.52396 4.06299 11.8123C4.06299 16.1006 7.57827 19.5907 11.8976 19.5907C16.2168 19.5907 19.7334 16.1006 19.7334 11.8123C19.7334 7.52396 16.2181 4.03387 11.8976 4.03387ZM23.9486 20.1061C22.8857 21.6251 21.5392 22.9323 19.9858 23.9565L27.0788 31L31 27.1082L23.9486 20.1061Z" fill="#272727"/>
</svg>
