<svg width="21" height="21" viewBox="0 0 21 21" fill="none" xmlns="http://www.w3.org/2000/svg">
<path d="M13.9212 11.6725L16.2277 8.14975L15.8305 7.7945L12.6166 10.5061C12.026 10.3854 11.3899 10.5656 10.9594 11.0469C10.3154 11.767 10.3775 12.8739 11.0985 13.5179C11.8195 14.1619 12.9255 14.0997 13.5695 13.3787C14 12.8975 14.1076 12.2456 13.9212 11.6725ZM10.5 2.35725V0H14V2.35725C12.7409 2.14462 11.732 2.149 10.5 2.35725ZM18.2446 4.16325L19.4757 2.93213L20.713 4.16937L19.5571 5.32525C19.1529 4.90175 18.7136 4.51412 18.2446 4.16325ZM1.75 7.875H8.75V9.625H1.75V7.875ZM0 11.375H7V13.125H0V11.375ZM2.625 14.875H8.75V16.625H2.625V14.875ZM21 12.25C21 17.0826 17.0826 21 12.25 21C9.80875 21 7.6125 19.9894 6.02787 18.375H8.89787C9.89363 18.9271 11.032 19.25 12.25 19.25C16.1096 19.25 19.25 16.1096 19.25 12.25C19.25 8.39038 16.1096 5.25 12.25 5.25C11.032 5.25 9.89363 5.57288 8.89787 6.125H6.02787C7.6125 4.51062 9.80875 3.5 12.25 3.5C17.0826 3.5 21 7.41738 21 12.25Z" fill="white"/>
</svg>
