<svg width="18" height="13" viewBox="0 0 18 13" fill="none" xmlns="http://www.w3.org/2000/svg">
<path opacity="0.3" d="M9.0005 3.03513C11.6121 3.03523 14.1239 3.96699 16.0167 5.63782C16.1592 5.76681 16.387 5.76518 16.5274 5.63417L17.8899 4.35745C17.9609 4.291 18.0006 4.20098 18 4.10733C17.9994 4.01368 17.9586 3.9241 17.8867 3.85843C12.9188 -0.562185 5.08137 -0.562185 0.113466 3.85843C0.0415014 3.92406 0.000679483 4.0136 8.00417e-06 4.10726C-0.00064704 4.20091 0.0389273 4.29095 0.109955 4.35745L1.47277 5.63417C1.61306 5.76538 1.84109 5.76701 1.98353 5.63782C3.87654 3.96688 6.3886 3.03512 9.0005 3.03513ZM9.0005 7.18885C10.4354 7.18877 11.8191 7.68399 12.8828 8.57829C13.0266 8.70521 13.2533 8.70246 13.3935 8.57209L14.7544 7.29537C14.8261 7.2284 14.8658 7.13755 14.8648 7.04315C14.8637 6.94875 14.822 6.85867 14.7489 6.79307C11.5099 3.99553 6.49383 3.99553 3.25482 6.79307C3.18165 6.85867 3.13994 6.94879 3.13896 7.04322C3.13802 7.13766 3.17791 7.2285 3.24973 7.29537L4.61022 8.57209C4.75046 8.70246 4.97708 8.70521 5.12094 8.57829C6.18388 7.68458 7.56652 7.1894 9.0005 7.18885ZM11.6158 10.2358C11.6886 10.1695 11.7287 10.0783 11.7266 9.98358C11.7245 9.88892 11.6804 9.79924 11.6048 9.73573C10.1014 8.55507 7.89955 8.55507 6.39617 9.73573C6.32048 9.79919 6.27634 9.88884 6.27418 9.98351C6.27203 10.0782 6.31204 10.1695 6.38478 10.2358L8.73923 12.4417C8.80824 12.5065 8.90234 12.543 9.0005 12.543C9.09867 12.543 9.19273 12.5065 9.26174 12.4417L11.6158 10.2358Z" fill="black"/>
</svg>
